<?xml version="1.0" encoding="UTF-8" standalone="no"?>
<!-- Created with Inkscape (http://www.inkscape.org/) -->

<svg
   width="100"
   height="40"
   viewBox="0 0 26.458333 10.583334"
   version="1.1"
   id="svg5"
   inkscape:export-filename="C:\Users\ETEOT\Documents\Trabalho Design\logotipo.png"
   inkscape:export-xdpi="96"
   inkscape:export-ydpi="96"
   inkscape:version="1.1 (c68e22c387, 2021-05-23)"
   sodipodi:docname="montanha.svg"
   xmlns:inkscape="http://www.inkscape.org/namespaces/inkscape"
   xmlns:sodipodi="http://sodipodi.sourceforge.net/DTD/sodipodi-0.dtd"
   xmlns="http://www.w3.org/2000/svg"
   xmlns:svg="http://www.w3.org/2000/svg">
  <sodipodi:namedview
     id="namedview7"
     pagecolor="#ffffff"
     bordercolor="#666666"
     borderopacity="1.0"
     inkscape:pageshadow="2"
     inkscape:pageopacity="0.0"
     inkscape:pagecheckerboard="0"
     inkscape:document-units="px"
     showgrid="false"
     inkscape:snap-global="false"
     inkscape:zoom="8"
     inkscape:cx="49.625"
     inkscape:cy="25.4375"
     inkscape:window-width="1280"
     inkscape:window-height="961"
     inkscape:window-x="-8"
     inkscape:window-y="-8"
     inkscape:window-maximized="1"
     inkscape:current-layer="layer1"
     units="px"
     width="100px" />
  <defs
     id="defs2">
    <linearGradient
       id="linearGradient47693"
       inkscape:swatch="gradient">
      <stop
         style="stop-color:#2b0000;stop-opacity:1;"
         offset="0"
         id="stop47689" />
      <stop
         style="stop-color:#2b0000;stop-opacity:0;"
         offset="1"
         id="stop47691" />
    </linearGradient>
    <linearGradient
       id="linearGradient47043"
       inkscape:swatch="solid">
      <stop
         style="stop-color:#2b0000;stop-opacity:1;"
         offset="0"
         id="stop47041" />
    </linearGradient>
    <linearGradient
       id="linearGradient20758"
       inkscape:swatch="solid">
      <stop
         style="stop-color:#000000;stop-opacity:1;"
         offset="0"
         id="stop20756" />
    </linearGradient>
    <filter
       inkscape:collect="always"
       style="color-interpolation-filters:sRGB"
       id="filter49777"
       x="-0.0039295764"
       y="-0.016547547"
       width="1.0078592"
       height="1.0330951">
      <feGaussianBlur
         inkscape:collect="always"
         stdDeviation="0.00089218454"
         id="feGaussianBlur49779" />
    </filter>
  </defs>
  <g
     inkscape:label="Camada 1"
     inkscape:groupmode="layer"
     id="layer1"
     style="opacity:1">
    <path
       style="fill:#f9f9f9;stroke:none;stroke-width:2.63055"
       d=""
       id="path15733"
       transform="scale(0.26458333)" />
    <path
       style="fill:#f9f9f9;stroke:none;stroke-width:1.86008"
       d=""
       id="path16786"
       transform="scale(0.26458333)" />
    <path
       style="fill:#f9f9f9;stroke:none;stroke-width:1.86008"
       d=""
       id="path16825"
       transform="scale(0.26458333)" />
    <path
       style="fill:#f9f9f9;stroke:none;stroke-width:1.62165"
       d=""
       id="path18405"
       transform="scale(0.26458333)" />
    <g
       id="g80520"
       transform="matrix(0.2988704,0,0,0.12424592,3.0617179,0.64056108)">
      <path
         style="fill:#cccccc;fill-opacity:1;stroke:#2b0000;stroke-width:0.2;stroke-miterlimit:4;stroke-dasharray:none;stroke-opacity:0.931818"
         id="path10365"
         sodipodi:type="arc"
         sodipodi:cx="33.8806"
         sodipodi:cy="38.160061"
         sodipodi:rx="44.156876"
         sodipodi:ry="42.335976"
         sodipodi:start="0"
         sodipodi:end="6.283174"
         sodipodi:open="true"
         sodipodi:arc-type="arc"
         d="M 78.037476,38.160061 A 44.156876,42.335976 0 0 1 33.880725,80.496037 44.156876,42.335976 0 0 1 -10.276276,38.1603 44.156876,42.335976 0 0 1 33.880226,-4.1759148 44.156876,42.335976 0 0 1 78.037476,38.159582" />
      <path
         style="fill:none;stroke:#000000;stroke-width:0.274671px;stroke-linecap:butt;stroke-linejoin:miter;stroke-opacity:1"
         d="m 45.231418,48.128822 c 4.73754,-16.819194 2.02677,-4.72103 2.83707,-9.177659 l 17.06641,29.099858"
         id="path10667"
         sodipodi:nodetypes="ccc" />
      <path
         style="fill:none;stroke:#000000;stroke-width:0.274565px;stroke-linecap:butt;stroke-linejoin:miter;stroke-opacity:1"
         d="M 18.862543,44.986207 32.268568,22.621636 46.470988,43.721653"
         id="path10873"
         sodipodi:nodetypes="ccc" />
      <path
         style="fill:#f9f9f9;stroke:none;stroke-width:3.93716"
         d="M 31.528598,80.333704 C 21.122064,79.856734 11.230807,75.769475 3.5035955,68.753222 1.5998496,67.024636 1.0488205,66.447813 1.1434037,66.282564 1.6170184,65.455114 11.930254,50.19803 14.279405,46.354116 c 10.952797,-10.236874 26.105847,59.727284 5.143286,-1.74503 -0.0049,-0.220152 12.738674,-21.686067 12.870045,-21.686067 0.06073,0 2.710174,4.56769 6.412222,9.88814 3.702047,5.320448 6.92763,9.954964 7.167959,10.298922 l 0.436965,0.62538 -2.171261,7.279243 c -1.189482,3.987789 -2.063964,7.358277 -2.063964,7.454873 0,0.0966 0.08535,0.174758 0.189677,0.173694 0.120779,-0.0013 1.177964,-3.501263 2.91044,-9.635606 1.49642,-5.29852 2.75967,-9.632667 2.807224,-9.631437 0.04755,0.0013 3.176696,5.276154 6.953652,11.722058 3.776954,6.445901 7.575666,12.925411 8.441581,14.398908 l 1.574393,2.679089 -1.365512,1.190328 C 54.780562,77.042483 43.549603,80.88467 31.528598,80.333704 Z"
         id="path11203"
         sodipodi:nodetypes="sssccssscsscscsscss" />
      <path
         style="fill:#f9f9f9;stroke:none;stroke-width:3.93716"
         d="m 4.3290637,61.062894 c 0.085159,-0.2446 6.3349793,-10.613938 10.0542463,-16.681421 1.151061,-1.877804 2.202018,-3.60154 2.335456,-3.830521 0.133437,-0.228981 0.283466,-0.416764 0.333393,-0.41729 0.169749,-0.0019 1.819619,4.406492 1.713473,4.578236 -0.05807,0.09396 2.15e-4,0.2482 0.129519,0.342754 0.194675,0.142349 0.721712,1.167778 0.721712,1.4042 0,0.03722 -0.19989,-0.07466 -0.444204,-0.248627 -1.291092,-0.91934 -2.744345,-1.155843 -3.880439,-0.631502 -0.807453,0.372666 -0.992802,0.598681 -2.813543,3.430876 -2.022633,3.14625 -7.8752906,11.942625 -8.0768978,12.139348 -0.1050476,0.102504 -0.1286431,0.07458 -0.072716,-0.08605 z"
         id="path15655" />
      <path
         style="fill:#f9f9f9;stroke:none;stroke-width:2.784"
         d="m 42.526753,56.926485 c 0.374711,-1.434616 1.230045,-4.431919 2.172245,-7.612068 0.265932,-0.897591 0.390773,-1.179438 0.49412,-1.115565 0.107069,0.06617 -0.09455,0.894419 -0.893128,3.668877 -1.298652,4.511865 -1.969201,6.641398 -2.091256,6.641398 -0.05244,0 0.09067,-0.712189 0.318019,-1.582642 z"
         id="path16328" />
      <path
         style="fill:#f9f9f9;stroke:none;stroke-width:2.784"
         d="M 30.29443,80.216832 C 20.796085,79.504074 11.649791,75.703072 4.3875181,69.450479 2.9326961,68.197925 1.2139813,66.53195 1.2155132,66.375814 c 7.938e-4,-0.06985 2.3103285,-3.599508 5.1325409,-7.843697 2.8222125,-4.244192 5.7494569,-8.677455 6.5049899,-9.851697 0.755531,-1.174242 1.498717,-2.26917 1.651519,-2.433172 0.347337,-0.37279 1.293841,-0.828439 1.720895,-0.828439 0.177212,0 0.349208,-0.04369 0.382209,-0.09709 0.110966,-0.179549 -0.844468,0.0061 -1.412624,0.274551 -0.71162,0.336179 -0.986835,0.664625 -2.497433,2.980475 C 9.2597355,53.84724 5.4879387,59.489845 5.4368794,59.438786 5.3641137,59.36602 14.487444,44.194584 16.637729,40.812593 l 0.423294,-0.665763 0.328435,0.785106 c 0.522689,1.24946 1.316823,3.498112 1.316823,3.728691 0,0.116014 0.138782,0.418563 0.308406,0.67233 0.31935,0.477766 0.510038,0.944234 0.385998,0.944234 -0.03913,0 -0.218252,-0.104754 -0.398057,-0.232785 -0.501394,-0.357027 -1.487528,-0.728851 -1.905813,-0.718593 l -0.375541,0.0092 0.4392,0.08707 c 0.902867,0.179004 1.788237,0.690232 2.752905,1.58958 0.280316,0.261334 0.509664,0.445098 0.509664,0.408365 0,-0.03673 -0.213929,-0.691348 -0.475398,-1.454703 l -0.475398,-1.387916 1.080384,-1.859384 C 23.069975,38.385594 31.757642,23.773823 32.16455,23.18798 c 0.10745,-0.154702 0.336534,0.157827 1.568874,2.14036 2.280999,3.669567 4.959524,7.616077 11.9606,17.622621 l 0.563031,0.804733 -0.67931,2.253252 c -0.373621,1.239287 -0.706961,2.36189 -0.740762,2.494672 -0.07171,0.281717 0.113991,0.331888 0.198583,0.05365 0.0314,-0.103275 0.0313,0.04616 -2.14e-4,0.332089 -0.08993,0.815584 -2.532563,9.081032 -2.588107,8.757724 -0.01487,-0.08651 0.159962,-0.833257 0.388493,-1.65945 0.228534,-0.826191 0.387951,-1.548855 0.354259,-1.605915 -0.03369,-0.05706 -0.119004,0.111929 -0.189582,0.375541 -0.934971,3.492156 -0.990097,3.742539 -0.849643,3.859107 0.07805,0.06478 0.164796,0.07922 0.192759,0.0321 0.15027,-0.253244 1.078638,-3.36068 3.102965,-10.386261 1.241295,-4.308004 2.309146,-8.013798 2.373005,-8.235098 0.06386,-0.221303 0.151011,-0.402368 0.193678,-0.402368 0.07753,0 1.294019,2.018395 4.623771,7.671784 2.869745,4.872368 11.947284,20.365 12.090445,20.634761 0.149029,0.280816 0.145698,0.284271 -2.020118,2.097202 -6.94241,5.811255 -15.715424,9.364673 -25.062933,10.151485 -1.173652,0.09879 -6.18943,0.12395 -7.349892,0.03687 z M 43.638146,52.983297 c -0.03397,-0.08852 -0.08074,-0.160949 -0.103931,-0.160949 -0.02318,0 -0.04217,0.07243 -0.04217,0.160949 0,0.08852 0.04677,0.160946 0.103931,0.160946 0.05716,0 0.07614,-0.07243 0.04217,-0.160946 z m 0.28309,-0.637456 c 0,-0.02601 -0.04828,-0.07716 -0.107296,-0.11363 -0.05902,-0.03647 -0.107299,-0.01519 -0.107299,0.04732 0,0.06249 0.04828,0.11363 0.107299,0.11363 0.05901,0 0.107296,-0.0213 0.107296,-0.04732 z m 0.214596,-0.751083 c 0,-0.02604 -0.04828,-0.07716 -0.107296,-0.113631 -0.05902,-0.03647 -0.1073,-0.01519 -0.1073,0.04732 0,0.0625 0.04828,0.11363 0.1073,0.11363 0.05901,0 0.107296,-0.0213 0.107296,-0.04732 z m 0.214596,-0.751083 c 0,-0.02604 -0.04828,-0.07716 -0.107297,-0.113631 -0.05901,-0.03647 -0.107299,-0.01519 -0.107299,0.04731 0,0.0625 0.04828,0.113631 0.107299,0.113631 0.05901,0 0.107297,-0.0213 0.107297,-0.04732 z m 0.214595,-0.751084 c 0,-0.02604 -0.04828,-0.07716 -0.107299,-0.11363 -0.05901,-0.03647 -0.107296,-0.01519 -0.107296,0.04732 0,0.0625 0.04828,0.113631 0.107296,0.113631 0.05902,0 0.107299,-0.0213 0.107299,-0.04732 z m 0.107297,-0.321894 c 0,-0.02601 -0.04828,-0.07716 -0.107297,-0.113631 -0.05901,-0.03647 -0.107299,-0.01519 -0.107299,0.04732 0,0.0625 0.04829,0.113631 0.107299,0.113631 0.05901,0 0.107297,-0.0213 0.107297,-0.04732 z m 0.107299,-0.429189 c 0,-0.02604 -0.04828,-0.07716 -0.107299,-0.113631 -0.05901,-0.03647 -0.107297,-0.01519 -0.107297,0.04732 0,0.0625 0.04828,0.11363 0.107297,0.11363 0.05902,0 0.107299,-0.0213 0.107299,-0.04732 z m 0.107296,-0.381876 c 0,-0.05901 -0.04828,-0.107296 -0.107296,-0.107296 -0.05901,0 -0.107299,0.04828 -0.107299,0.107296 0,0.05901 0.04828,0.107297 0.107299,0.107297 0.05901,0 0.107296,-0.04828 0.107296,-0.107297 z"
         id="path16367" />
      <path
         style="fill:#f9f9f9;stroke:none;stroke-width:2.784"
         d="M 30.240781,80.223285 C 30.004727,80.199473 29.159757,80.104771 28.363073,80.012809 19.800624,79.024477 11.537388,75.452454 4.8648794,69.855035 3.2879151,68.532158 1.2125658,66.555712 1.2150317,66.379129 c 0.00106,-0.06802 2.3837609,-3.713458 5.2951406,-8.100975 2.911377,-4.387514 5.8377457,-8.822269 6.5030427,-9.855009 0.665295,-1.032741 1.313077,-1.990945 1.439516,-2.129341 0.33905,-0.37112 1.055314,-0.762433 1.586854,-0.866944 0.314675,-0.06187 0.375209,-0.09567 0.185516,-0.103592 -0.39555,-0.01651 -1.139884,0.264027 -1.56908,0.591391 -0.208759,0.159226 -1.075566,1.356117 -2.038276,2.81446 -5.7005033,8.635281 -7.1270149,10.763517 -7.1794262,10.711106 -0.0323,-0.0323 0.2934255,-0.653357 0.7238364,-1.380119 1.0684352,-1.804094 6.3688068,-10.561384 8.8477278,-14.618243 l 2.027544,-3.318168 0.285851,0.635725 c 0.410093,0.912045 1.2866,3.360618 1.356709,3.790042 0.03273,0.200517 0.221038,0.60983 0.418449,0.909585 0.3277,0.497586 0.44641,0.818144 0.30298,0.818144 -0.03077,0 -0.239149,-0.121237 -0.463061,-0.269414 -0.476776,-0.315516 -1.515758,-0.699329 -1.865683,-0.689206 -0.134255,0.0039 0.02146,0.07811 0.346035,0.164955 0.744472,0.199184 1.557613,0.686207 2.370225,1.419627 0.348761,0.314775 0.634111,0.554183 0.634111,0.532022 0,-0.02217 -0.212838,-0.67487 -0.472974,-1.450465 l -0.472975,-1.410171 0.917165,-1.589696 C 22.345297,39.603159 30.935211,25.143034 31.891172,23.63112 l 0.395319,-0.625221 1.115502,1.791084 c 1.963815,3.153156 4.47516,6.903627 8.527754,12.735446 2.173494,3.127727 4.035615,5.807488 4.138049,5.955022 0.181697,0.261694 0.168291,0.328491 -0.549156,2.736091 -0.845227,2.836404 -0.76535,2.521495 -0.639591,2.521495 0.05469,0 0.125513,-0.0845 0.15739,-0.18777 0.03188,-0.103275 0.03621,0.0089 0.0096,0.249362 -0.04671,0.422397 -1.260679,4.831628 -1.614487,5.863958 -0.09557,0.27886 -0.153093,0.568563 -0.127826,0.643787 0.02527,0.07522 0.100915,-0.03223 0.168101,-0.238774 0.152942,-0.470204 4.419398,-15.341869 4.419398,-15.404795 0,-0.02535 0.04643,-0.04607 0.103175,-0.04607 0.119451,0 0.981014,1.434679 6.411293,10.67612 7.721087,13.140026 10.438564,17.7878 10.438291,17.852887 -2.64e-4,0.08461 -1.450522,1.333122 -2.907331,2.503046 -6.302751,5.061561 -14.161675,8.316036 -22.629241,9.371046 -1.378588,0.171765 -7.906054,0.312479 -9.066657,0.195453 z M 42.844652,57.1344 c 0.245425,-0.785606 0.426514,-1.485725 0.402418,-1.555816 -0.0241,-0.07009 -0.205885,0.398497 -0.403981,1.04131 -0.469985,1.525106 -0.534848,1.297331 -0.09407,-0.330346 0.458986,-1.694918 0.52846,-2.008417 0.420549,-1.897676 -0.11508,0.118099 -1.072393,3.654139 -1.072393,3.961117 0,0.264186 0.112393,0.410755 0.223946,0.292047 0.04252,-0.04524 0.278106,-0.72503 0.523531,-1.510636 z m 0.808342,-4.097457 c 0.03647,-0.05901 0.01519,-0.107296 -0.04732,-0.107296 -0.0625,0 -0.113631,0.04828 -0.113631,0.107296 0,0.05902 0.0213,0.1073 0.04732,0.1073 0.02601,0 0.07716,-0.04828 0.113631,-0.1073 z m 0.268242,-0.751083 c 0,-0.05901 -0.04828,-0.107296 -0.107296,-0.107296 -0.05902,0 -0.107299,0.04828 -0.107299,0.107296 0,0.05902 0.04828,0.107299 0.107299,0.107299 0.05901,0 0.107296,-0.04828 0.107296,-0.107299 z m 0.214596,-0.751083 c 0,-0.05901 -0.04828,-0.107299 -0.107296,-0.107299 -0.05902,0 -0.1073,0.04829 -0.1073,0.107299 0,0.05901 0.04828,0.107296 0.1073,0.107296 0.05901,0 0.107296,-0.04828 0.107296,-0.107296 z m 0.214596,-0.751083 c 0,-0.05902 -0.04828,-0.1073 -0.107297,-0.1073 -0.05901,0 -0.107299,0.04828 -0.107299,0.1073 0,0.05901 0.04828,0.107296 0.107299,0.107296 0.05901,0 0.107297,-0.04828 0.107297,-0.107296 z m 0.214595,-0.751084 c 0,-0.05901 -0.04828,-0.107299 -0.107299,-0.107299 -0.05901,0 -0.107296,0.04828 -0.107296,0.107299 0,0.05901 0.04828,0.107297 0.107296,0.107297 0.05902,0 0.107299,-0.04828 0.107299,-0.107297 z m 0.05365,-0.321894 c 0.03647,-0.05901 0.01519,-0.107297 -0.04732,-0.107297 -0.06249,0 -0.113631,0.04828 -0.113631,0.107297 0,0.05902 0.0213,0.107299 0.04732,0.107299 0.02604,0 0.07716,-0.04828 0.113631,-0.107299 z m 0.160946,-0.429192 c 0,-0.05901 -0.0213,-0.107296 -0.04732,-0.107296 -0.02604,0 -0.07716,0.04828 -0.11363,0.107296 -0.03647,0.05902 -0.01519,0.107299 0.04731,0.107299 0.0625,0 0.113631,-0.04828 0.113631,-0.107299 z m 0.107296,-0.321892 c 0,-0.05901 -0.04828,-0.107296 -0.107296,-0.107296 -0.05901,0 -0.107299,0.04828 -0.107299,0.107296 0,0.05901 0.04828,0.107297 0.107299,0.107297 0.05901,0 0.107296,-0.04828 0.107296,-0.107297 z"
         id="path16406" />
      <path
         style="fill:#f9f9f9;stroke:none;stroke-width:2.784"
         d="M 29.543347,80.172874 C 20.7124,79.291674 12.327008,75.891059 5.5703644,70.450858 4.6006744,69.670099 2.2466448,67.559023 1.5989024,66.88928 1.1897878,66.466267 1.1812365,66.442402 1.3306599,66.140584 c 0.084889,-0.171464 2.4395033,-3.757266 5.232482,-7.968446 2.792976,-4.211177 5.7141561,-8.622368 6.4915101,-9.802643 1.521208,-2.309688 1.842396,-2.639687 2.826731,-2.904265 0.303763,-0.08165 0.412607,-0.142229 0.263171,-0.146479 -0.140156,-0.004 -0.535499,0.118719 -0.878539,0.272664 -0.80418,0.360894 -0.999781,0.612844 -3.822787,4.924033 -3.7010631,5.65213 -5.946394,8.983292 -6.0113201,8.918366 -0.033663,-0.03366 0.2922005,-0.65383 0.7241408,-1.378153 1.3905415,-2.331797 5.9669973,-9.893634 8.4521703,-13.965812 l 2.415344,-3.957754 0.185309,0.363281 c 0.270266,0.529828 1.252042,3.185356 1.42939,3.866245 0.08365,0.321159 0.30217,0.820574 0.485598,1.109808 0.302802,0.47747 0.41748,0.805762 0.281466,0.805762 -0.02862,0 -0.282109,-0.139454 -0.563311,-0.309898 -0.281202,-0.170445 -0.631986,-0.342675 -0.779521,-0.382739 -0.147534,-0.04006 0.01061,0.08732 0.35143,0.283073 0.340818,0.195752 0.938171,0.641802 1.327449,0.991222 0.795526,0.714073 0.785019,0.794784 0.137208,-1.053963 -0.394163,-1.124884 -0.403357,-1.182484 -0.239768,-1.502166 0.562327,-1.098876 11.93669,-20.275275 12.520782,-21.109181 0.12319,-0.175882 0.295351,0.05573 1.627171,2.189054 1.942172,3.110997 4.159499,6.413021 8.374838,12.471728 1.888702,2.714633 3.583136,5.154031 3.76541,5.420887 l 0.331406,0.48519 -0.737478,2.465496 c -0.848051,2.835158 -0.76753,2.519143 -0.641893,2.519143 0.05469,0 0.125513,-0.0845 0.15739,-0.18777 0.03188,-0.103275 0.03472,0.01826 0.0063,0.270089 -0.02841,0.251826 -0.439978,1.81428 -0.914593,3.47212 -0.474612,1.657839 -0.840447,3.036739 -0.812964,3.064221 0.02748,0.02748 0.07725,-0.03817 0.110606,-0.145888 0.162023,-0.52332 4.465452,-15.50533 4.465452,-15.546094 0,-0.02585 0.04686,-0.04698 0.104135,-0.04698 0.118975,0 1.504786,2.308429 6.892258,11.480853 7.498914,12.767257 9.956641,16.974931 9.956641,17.04595 0,0.09807 -2.062723,1.855912 -3.380679,2.88099 -5.306647,4.127404 -11.737125,7.05259 -18.454399,8.394795 -3.214909,0.642384 -4.588732,0.770514 -8.691112,0.810585 -2.065481,0.02019 -4.214117,-0.0091 -4.774748,-0.06503 z M 42.905035,56.918238 c 0.218401,-0.724482 0.373753,-1.340578 0.345226,-1.369105 -0.02853,-0.02853 -0.213093,0.462968 -0.410141,1.092213 -0.197051,0.629243 -0.376423,1.089634 -0.398603,1.023091 -0.02217,-0.06654 -0.08163,-0.120989 -0.132112,-0.120989 -0.124208,0 -0.254777,0.917327 -0.15382,1.080678 0.120758,0.195392 0.297725,-0.207415 0.74945,-1.705888 z m -0.06443,-0.986314 c 0.198657,-0.76831 0.337595,-1.420529 0.30875,-1.449374 -0.02885,-0.02885 -0.206899,0.52845 -0.395674,1.238435 -0.188777,0.709983 -0.370599,1.362202 -0.40405,1.449372 -0.03345,0.08717 -0.01794,0.158496 0.03448,0.158496 0.05241,0 0.257839,-0.628618 0.456494,-1.396929 z m 0.812387,-2.894981 c 0.03647,-0.05901 0.01519,-0.107296 -0.04732,-0.107296 -0.0625,0 -0.113631,0.04828 -0.113631,0.107296 0,0.05902 0.0213,0.1073 0.04732,0.1073 0.02601,0 0.07716,-0.04828 0.113631,-0.1073 z m 0.482838,-1.442185 c 0,-0.02604 -0.04828,-0.07716 -0.107296,-0.113631 -0.05902,-0.03647 -0.1073,-0.01519 -0.1073,0.04732 0,0.0625 0.04828,0.11363 0.1073,0.11363 0.05901,0 0.107296,-0.0213 0.107296,-0.04732 z m 0.214596,-0.811064 c 0,-0.05902 -0.04828,-0.1073 -0.107297,-0.1073 -0.05901,0 -0.107299,0.04828 -0.107299,0.1073 0,0.05901 0.04828,0.107296 0.107299,0.107296 0.05901,0 0.107297,-0.04828 0.107297,-0.107296 z m 0.214595,-0.751084 c 0,-0.05901 -0.04828,-0.107299 -0.107299,-0.107299 -0.05901,0 -0.107296,0.04828 -0.107296,0.107299 0,0.05901 0.04828,0.107297 0.107296,0.107297 0.05902,0 0.107299,-0.04828 0.107299,-0.107297 z m 0.214596,-0.751086 c 0,-0.05901 -0.0213,-0.107296 -0.04732,-0.107296 -0.02604,0 -0.07716,0.04828 -0.11363,0.107296 -0.03647,0.05902 -0.01519,0.107299 0.04731,0.107299 0.0625,0 0.113631,-0.04828 0.113631,-0.107299 z m 0.107296,-0.321892 c 0,-0.05901 -0.04828,-0.107296 -0.107296,-0.107296 -0.05901,0 -0.107299,0.04828 -0.107299,0.107296 0,0.05901 0.04828,0.107297 0.107299,0.107297 0.05901,0 0.107296,-0.04828 0.107296,-0.107297 z M 17.579656,45.418809 c -0.118028,-0.05072 -0.287022,-0.09222 -0.375544,-0.09222 -0.101447,0 -0.08161,0.03409 0.05365,0.09222 0.118028,0.05072 0.287023,0.09221 0.375542,0.09221 0.101449,0 0.08162,-0.03409 -0.05365,-0.09221 z"
         id="path16445" />
      <path
         style="fill:#f9f9f9;stroke:none;stroke-width:2.784"
         d="M 30.133484,80.217245 C 26.237056,79.879187 22.052501,78.983424 18.652632,77.759607 12.557452,75.565592 7.2351332,72.263473 2.4523715,67.708512 1.2273322,66.541819 1.1723332,66.471059 1.2899194,66.212982 c 0.067887,-0.148993 1.94546,-3.017629 4.1723891,-6.374749 2.2269265,-3.357121 5.1097495,-7.721368 6.4062715,-9.698326 1.296522,-1.976959 2.481516,-3.727604 2.633319,-3.890317 0.151802,-0.162716 0.517538,-0.416206 0.812741,-0.563314 0.295207,-0.147108 0.477049,-0.267467 0.404098,-0.267467 -0.284294,0 -0.958387,0.432845 -1.364493,0.876162 -0.234315,0.255781 -1.076838,1.45488 -1.872276,2.664661 -3.991962,6.071367 -6.9933953,10.530848 -7.0497859,10.474457 -0.069927,-0.06993 1.4459928,-2.623214 6.5691909,-11.064594 5.034857,-8.295825 5.004361,-8.247581 5.109544,-8.083468 0.17399,0.271465 1.148492,2.827348 1.445643,3.791561 0.16368,0.531122 0.433322,1.180338 0.599202,1.442702 0.262149,0.41462 0.382027,0.756901 0.265097,0.756901 -0.02008,0 -0.297712,-0.143978 -0.616964,-0.31995 -0.746781,-0.411628 -0.965184,-0.420536 -0.258561,-0.01056 0.295069,0.171202 0.809786,0.55702 1.14382,0.857375 0.334034,0.300352 0.634995,0.546097 0.668806,0.546097 0.03381,0 -0.15326,-0.608872 -0.415708,-1.35305 l -0.477181,-1.353047 0.207991,-0.4077 c 0.5626,-1.102783 11.597114,-19.707462 12.391806,-20.893132 l 0.233105,-0.347787 1.32496,2.118199 c 1.891085,3.023261 4.796226,7.346685 8.930139,13.289814 1.975179,2.839617 3.618805,5.207551 3.652502,5.262076 0.0337,0.05452 -0.24125,1.111078 -0.610992,2.347896 -0.935228,3.128391 -0.857443,2.824488 -0.659574,2.576971 0.164118,-0.205296 0.166502,-0.205142 0.166502,0.01069 0,0.180263 -0.74876,3.005148 -1.17388,4.428741 -0.06051,0.202639 -0.08784,0.390615 -0.06074,0.417724 0.06691,0.06691 -0.06911,0.522285 2.045724,-6.84848 1.041339,-3.629342 1.918166,-6.683303 1.948503,-6.786578 0.03034,-0.103275 0.09588,-0.18777 0.145656,-0.18777 0.133871,0 2.229765,3.525245 11.566432,19.454461 2.899093,4.946115 5.271074,9.030893 5.271074,9.077282 0,0.110895 -2.217161,1.99666 -3.527308,3.000089 -6.765523,5.181648 -15.095453,8.359318 -23.661412,9.026261 -1.266389,0.0986 -6.505993,0.122576 -7.522081,0.03442 z m 12.29831,-21.89589 c 0.224927,-0.578577 0.839671,-2.643722 0.799057,-2.684333 -0.02273,-0.02275 -0.200456,0.444082 -0.394925,1.037379 -0.194468,0.593299 -0.385924,1.026392 -0.425455,0.962429 -0.10046,-0.162544 -0.184809,0.0046 -0.269438,0.533813 -0.08335,0.521248 0.108127,0.620498 0.290761,0.150712 z m 0.406045,-2.408809 c 0.335431,-1.267134 0.404527,-1.641626 0.215868,-1.169974 -0.191434,0.478589 -0.737764,2.625063 -0.642633,2.524842 0.05195,-0.05473 0.243994,-0.664419 0.426765,-1.354868 z m 0.807453,-1.463537 c 0.101835,-0.374132 0.164031,-0.701366 0.13821,-0.727184 -0.02582,-0.02582 -0.13127,0.253606 -0.234338,0.62094 -0.103069,0.367335 -0.213477,0.742852 -0.245349,0.83448 -0.0386,0.110974 -0.02217,0.130773 0.04919,0.0593 0.05893,-0.05901 0.190455,-0.413406 0.292291,-0.787537 z m 0.705136,-3.605334 c 0,-0.02604 -0.04828,-0.07716 -0.107297,-0.113631 -0.05901,-0.03647 -0.107299,-0.01519 -0.107299,0.04731 0,0.0625 0.04828,0.113631 0.107299,0.113631 0.05901,0 0.107297,-0.0213 0.107297,-0.04732 z m 0.429191,-1.562151 c 0,-0.05901 -0.0213,-0.107296 -0.04732,-0.107296 -0.02604,0 -0.07716,0.04828 -0.11363,0.107296 -0.03647,0.05902 -0.01519,0.107299 0.04731,0.107299 0.0625,0 0.113631,-0.04828 0.113631,-0.107299 z m 0.107296,-0.321892 c 0,-0.05901 -0.04828,-0.107296 -0.107296,-0.107296 -0.05901,0 -0.107299,0.04828 -0.107299,0.107296 0,0.05901 0.04828,0.107297 0.107299,0.107297 0.05901,0 0.107296,-0.04828 0.107296,-0.107297 z M 16.209374,45.353983 c -0.03566,-0.03565 -0.128199,-0.03946 -0.205653,-0.0085 -0.08559,0.03425 -0.06017,0.05968 0.06483,0.06482 0.113109,0.0047 0.176482,-0.02069 0.140827,-0.05636 z"
         id="path16484" />
      <path
         style="fill:#f9f9f9;stroke:none;stroke-width:2.42714"
         d="M 30.776083,80.256284 C 21.858493,79.763283 12.586532,76.144736 5.467116,70.379013 3.6696348,68.923307 1.2160742,66.612278 1.2160742,66.374922 c 0,-0.07787 1.4586849,-2.341927 3.2415215,-5.031247 7.6140733,-11.485446 9.9097593,-14.990768 9.7550603,-14.895158 -0.05788,0.03577 -1.011748,1.438696 -2.119707,3.117604 -4.0552975,6.145067 -7.1635245,10.772732 -7.2066622,10.729595 -0.051454,-0.05146 2.3196365,-4.03597 6.5723932,-11.044627 4.697674,-7.741885 5.489932,-9.027027 5.564928,-9.027027 0.150667,0 1.244989,2.775818 1.641089,4.162724 0.08816,0.308694 0.193085,0.603361 0.233156,0.654809 0.131453,0.16877 0.672155,1.274821 0.638757,1.306629 -0.01794,0.01709 -0.303342,-0.133107 -0.634228,-0.333761 -0.775647,-0.470371 -0.977765,-0.475221 -0.240289,-0.0058 0.308695,0.196506 0.79869,0.57496 1.088874,0.84101 0.290185,0.266049 0.550283,0.483724 0.577993,0.483724 0.02771,0 -0.155702,-0.615161 -0.407583,-1.367028 -0.428259,-1.278363 -0.449164,-1.384046 -0.32227,-1.629426 0.645192,-1.247664 12.202078,-20.69747 12.549431,-21.120227 l 0.171026,-0.20815 1.304714,2.083014 c 2.401363,3.83385 4.221493,6.536341 9.687695,14.384097 1.558869,2.23805 2.851761,4.153466 2.873094,4.256482 0.02133,0.103018 -0.28003,1.256935 -0.669689,2.564262 -0.389658,1.307325 -0.690531,2.394894 -0.668608,2.41682 0.02193,0.02193 0.104616,-0.07962 0.183759,-0.225652 0.07914,-0.146034 0.144954,-0.223422 0.146253,-0.171971 0.0044,0.175781 -0.281871,1.308708 -0.800086,3.165935 -0.284877,1.020972 -0.500523,1.87375 -0.479211,1.895062 0.0213,0.02133 0.682675,-2.203164 1.469699,-4.943279 2.310572,-8.044532 2.501033,-8.687961 2.601397,-8.788328 0.12559,-0.12559 1.466329,2.123739 13.755013,23.076436 l 3.182077,5.425573 -0.343744,0.31664 c -0.791546,0.729136 -3.126729,2.636456 -4.038745,3.298748 -4.694799,3.409283 -9.937914,5.848133 -15.543371,7.230041 -4.599932,1.134015 -9.180021,1.541539 -14.203728,1.263809 z M 42.73571,57.408611 c 0.200385,-0.627933 0.389694,-1.289028 0.420688,-1.469101 0.03099,-0.180073 -0.120354,0.195559 -0.33632,0.834739 -0.303882,0.899364 -0.405374,1.110885 -0.448853,0.935442 -0.05201,-0.209875 -0.06036,-0.212815 -0.112474,-0.03961 -0.192212,0.638815 -0.179702,1.060894 0.02765,0.932748 0.04674,-0.02889 0.248931,-0.566285 0.449313,-1.194218 z m 0.0994,-1.499192 c 0.164971,-0.608219 0.284062,-1.153494 0.264655,-1.211723 -0.01942,-0.05823 -0.171902,0.418359 -0.338873,1.059079 -0.41982,1.610985 -0.409538,1.564595 -0.309986,1.39881 0.04634,-0.07717 0.219234,-0.63795 0.384204,-1.246166 z m 0.768112,-1.369306 c 0.104971,-0.370933 0.172966,-0.692314 0.151101,-0.714182 -0.03701,-0.03701 -0.443301,1.26397 -0.443301,1.419513 0,0.192199 0.120565,-0.09883 0.2922,-0.705331 z m 0.736788,-3.693248 c 0,-0.0227 -0.04209,-0.06727 -0.09354,-0.09907 -0.05145,-0.0318 -0.09355,-0.01323 -0.09355,0.04125 0,0.05449 0.0421,0.09907 0.09355,0.09907 0.05145,0 0.09354,-0.01857 0.09354,-0.04125 z m -29.092286,-5.14238 c 0.490045,-0.27903 0.43543,-0.325597 -0.07389,-0.063 -0.350438,0.180682 -0.768014,0.526553 -0.768014,0.636136 0,0.03269 0.09471,-0.02896 0.210473,-0.13701 0.115761,-0.108042 0.399902,-0.3043 0.631426,-0.436128 z"
         id="path17528" />
      <path
         style="fill:#f9f9f9;stroke:none;stroke-width:2.42714"
         d="M 30.674184,80.253877 C 22.150526,79.764561 13.308607,76.422596 6.3142404,71.046599 4.2822087,69.48474 1.2160742,66.674148 1.2160742,66.373327 c 0,-0.08056 1.1641402,-1.90336 2.5869767,-4.050678 C 12.346653,49.428813 14.178792,46.634453 14.028027,46.727631 c -0.05611,0.03468 -0.673984,0.932355 -1.373052,1.994837 -3.6388731,5.530564 -7.7237434,11.61819 -7.7669525,11.574983 -0.056708,-0.05671 2.3962571,-4.174074 7.2776155,-12.215664 4.460338,-7.347998 4.748985,-7.810952 4.870022,-7.810952 0.137287,0 0.738253,1.456121 1.334479,3.233399 0.268657,0.800832 0.617249,1.684824 0.774652,1.96443 0.157401,0.279607 0.318659,0.611548 0.358349,0.737648 0.0701,0.222721 0.0658,0.225168 -0.150582,0.08564 -0.45906,-0.296029 -1.111414,-0.658577 -1.111414,-0.617675 0,0.02334 0.220998,0.189169 0.491106,0.368533 0.27011,0.179363 0.728533,0.543131 1.018717,0.808371 0.290185,0.265242 0.550283,0.482256 0.577993,0.482256 0.02771,0 -0.156863,-0.618631 -0.410162,-1.374733 l -0.460547,-1.374735 0.531884,-0.940488 C 21.640804,40.724722 31.830524,23.603964 32.145254,23.220453 l 0.17431,-0.212403 1.213988,1.942971 c 1.826001,2.922495 4.850164,7.424663 8.939564,13.30861 2.020316,2.90689 3.690877,5.370341 3.712358,5.474338 0.02148,0.103994 -0.278304,1.259519 -0.666186,2.567828 -0.387884,1.308312 -0.688909,2.39508 -0.668949,2.415043 0.01995,0.01995 0.101047,-0.08319 0.18019,-0.229222 0.08078,-0.149058 0.145534,-0.2023 0.147637,-0.121385 0.0039,0.1486 -0.632857,2.582709 -1.061606,4.058412 -0.133422,0.459221 -0.224983,0.852545 -0.203473,0.874056 0.02151,0.02151 0.07874,-0.101645 0.12718,-0.27368 0.274058,-0.97332 2.305638,-8.02708 3.008972,-10.447324 0.453617,-1.560944 0.86687,-2.880188 0.918339,-2.931655 0.128207,-0.128206 1.532017,2.221085 11.804303,19.754609 2.63746,4.50182 4.876041,8.318559 4.974622,8.48164 l 0.179239,0.29651 -1.335995,1.140878 c -4.744174,4.051303 -9.577122,6.81209 -15.227328,8.698503 -5.524363,1.8444 -11.452418,2.59367 -17.688235,2.235695 z m 12.031821,-22.77405 c 0.191881,-0.593606 0.331534,-1.096629 0.310338,-1.117825 -0.02119,-0.02119 -0.162123,0.325451 -0.313171,0.770329 -0.222774,0.656135 -0.285346,0.765609 -0.33138,0.579763 -0.05233,-0.211254 -0.06113,-0.214527 -0.113041,-0.04201 -0.189349,0.629298 -0.179893,1.061013 0.02053,0.937148 0.04282,-0.02646 0.234849,-0.533794 0.42673,-1.127402 z m 0.09503,-1.483778 c 0.133995,-0.503439 0.225581,-0.933392 0.203522,-0.95545 -0.03756,-0.03757 -0.535434,1.711576 -0.535434,1.88111 0,0.213548 0.111366,-0.09703 0.331912,-0.92566 z m 0.940326,-2.089534 c -0.04219,-0.04218 -0.342754,0.935532 -0.327453,1.065176 0.0051,0.04353 0.08966,-0.169583 0.187825,-0.473589 0.09817,-0.304003 0.160999,-0.570219 0.139628,-0.591587 z M 15.553347,45.556088 c 0.05485,0 0.07575,-0.02397 0.04644,-0.0533 -0.07867,-0.07867 -0.743963,0.281908 -0.959151,0.51984 -0.120171,0.132874 -0.0091,0.08667 0.31342,-0.130363 0.274756,-0.184898 0.544441,-0.336179 0.599294,-0.336179 z"
         id="path17567" />
      <path
         style="fill:#f9f9f9;stroke:none;stroke-width:2.42714"
         d="M 30.624882,80.25653 C 25.129031,79.943375 19.162412,78.339402 13.959923,75.776579 9.6849368,73.67066 6.6550264,71.581962 2.9148103,68.162529 1.6048132,66.964885 1.2160742,66.544833 1.2160742,66.326972 c 0,-0.05907 1.9854968,-3.104451 4.4122154,-6.767523 4.3016354,-6.493216 8.1959874,-12.411427 8.3528424,-12.69374 0.326943,-0.588438 -0.680188,0.900872 -4.5757752,6.76651 -2.4545554,3.695856 -4.4845789,6.697985 -4.5111642,6.6714 -0.087133,-0.08713 4.0126945,-6.922413 11.6397214,-19.405902 0.229423,-0.375504 0.459799,-0.668517 0.511943,-0.651134 0.130884,0.04363 0.734007,1.517671 1.330407,3.251531 0.274304,0.797465 0.658225,1.754701 0.853154,2.127189 0.194929,0.372488 0.335682,0.695986 0.312785,0.718883 -0.02289,0.02289 -0.272386,-0.102012 -0.554416,-0.277574 -0.71301,-0.443849 -0.800341,-0.403918 -0.130728,0.05978 0.304364,0.210767 0.753338,0.577514 0.997723,0.814998 0.266472,0.258943 0.444336,0.375465 0.444336,0.29109 0,-0.07738 -0.188069,-0.701419 -0.417928,-1.386748 -0.405413,-1.208733 -0.413422,-1.254844 -0.267436,-1.539586 0.669079,-1.304999 12.14147,-20.607682 12.538289,-21.096086 0.166746,-0.205232 0.173575,-0.19653 1.475206,1.879192 1.816708,2.897129 5.018408,7.658962 9.075465,13.49779 1.894705,2.726817 3.462732,5.045612 3.484504,5.152874 0.02177,0.107268 -0.258723,1.201735 -0.623319,2.432153 -0.364595,1.230421 -0.6615,2.279222 -0.659786,2.330673 0.0016,0.05145 0.06492,0.01183 0.140454,-0.08804 0.07673,-0.101446 0.137343,-0.129569 0.137343,-0.06372 0,0.164889 -0.418251,1.803903 -0.810334,3.175482 -0.181253,0.634055 -0.312701,1.16968 -0.292108,1.190273 0.02058,0.02058 0.662106,-2.139887 1.425591,-4.801063 1.906137,-6.643973 2.360305,-8.16741 2.466543,-8.273651 0.05944,-0.05944 0.645682,0.835097 1.678102,2.560572 1.888598,3.156389 8.909087,15.090007 13.116763,22.296228 0.991357,1.697831 1.882704,3.220326 1.980777,3.383325 l 0.178313,0.29636 -1.181632,1.01237 c -4.888394,4.188169 -9.779013,6.98447 -15.521823,8.874892 -5.52767,1.8196 -11.3626,2.546022 -17.59722,2.190768 z M 42.692617,57.489849 c 0.390893,-1.189485 0.393261,-1.450647 0.003,-0.329525 -0.190733,0.547904 -0.282292,0.71252 -0.327305,0.58846 -0.04764,-0.131295 -0.08905,-0.07539 -0.17417,0.235119 -0.114157,0.416428 -0.06704,0.77117 0.08154,0.613876 0.04458,-0.04719 0.232203,-0.545759 0.416946,-1.10793 z m 0.192646,-1.877745 c 0.0258,-0.154347 -0.03512,-0.02806 -0.135374,0.280633 -0.100253,0.308697 -0.203383,0.687551 -0.229179,0.841899 -0.0258,0.15435 0.03512,0.02806 0.135374,-0.280633 0.10025,-0.308695 0.203382,-0.687549 0.229179,-0.841899 z m 0.693245,-1.075759 c 0,-0.08845 -0.02972,-0.07115 -0.0804,0.04677 -0.04422,0.102897 -0.08039,0.25023 -0.08039,0.327403 0,0.08845 0.02972,0.07115 0.08039,-0.04677 0.04422,-0.102899 0.0804,-0.250232 0.0804,-0.327406 z m 0.192231,-0.608039 c 0.0028,-0.05145 -0.03566,-0.0304 -0.08554,0.04677 -0.04987,0.07717 -0.08837,0.203459 -0.08554,0.280633 0.0054,0.148159 0.161332,-0.150212 0.171074,-0.327406 z M 15.528357,45.489349 c 0,-0.0672 -0.754001,0.381778 -0.864261,0.514633 -0.05789,0.06976 0.112885,-0.0088 0.379503,-0.174516 0.266615,-0.165738 0.484758,-0.318791 0.484758,-0.340117 z"
         id="path17606" />
      <path
         style="fill:#f9f9f9;stroke:none;stroke-width:2.42714"
         d="M 30.50393,80.253363 C 21.77359,79.698424 12.532353,76.098627 5.7062014,70.593749 3.7303302,69.000325 1.2160742,66.642146 1.2160742,66.382349 c 0,-0.09002 1.7331716,-2.781667 3.8514945,-5.981448 4.168214,-6.296195 8.6010063,-13.029195 8.7263793,-13.254559 0.32404,-0.582485 -0.663861,0.878586 -4.480772,6.626897 C 6.9100953,57.39231 4.9213811,60.330807 4.8938089,60.303238 4.8311582,60.240584 6.3283956,57.697489 9.9777114,51.6681 15.172099,43.085949 16.912978,40.270835 17.02582,40.270835 c 0.141475,0 0.72077,1.3799 1.315569,3.133735 0.253005,0.746014 0.636143,1.703166 0.851413,2.127002 0.215273,0.423833 0.373356,0.788535 0.351298,0.810447 -0.02207,0.02191 -0.282154,-0.102756 -0.57799,-0.277042 -0.652386,-0.384339 -0.701172,-0.349195 -0.09354,0.06739 0.244385,0.167544 0.644936,0.491648 0.890114,0.720225 0.245176,0.228578 0.471371,0.390001 0.502653,0.358719 0.03128,-0.03128 -0.138628,-0.627359 -0.377581,-1.324618 -0.42614,-1.243444 -0.431506,-1.273551 -0.280055,-1.570914 0.648832,-1.273942 12.143372,-20.614232 12.538606,-21.096999 l 0.173257,-0.211632 1.256115,1.990196 c 1.954477,3.096683 4.974529,7.593285 8.938768,13.30906 1.998263,2.881164 3.651144,5.32692 3.673067,5.435013 0.02193,0.10809 -0.258508,1.206804 -0.623186,2.441583 -0.364678,1.234781 -0.661712,2.282904 -0.660077,2.329166 0.0016,0.04626 0.06478,0.0024 0.140316,-0.09747 0.209979,-0.277614 0.176954,-0.06714 -0.23972,1.527757 -0.206872,0.791848 -0.362802,1.453052 -0.346512,1.469345 0.0163,0.0163 0.758307,-2.50481 1.648918,-5.602446 1.699329,-5.910448 1.832218,-6.327875 1.969487,-6.186509 0.142248,0.146495 2.070473,3.374494 5.639612,9.441156 2.558632,4.349049 10.882072,18.546141 11.172145,19.056062 0.04368,0.07679 -1.866672,1.72267 -3.323942,2.863765 -1.214443,0.95095 -3.811852,2.69126 -5.202351,3.485661 -0.564981,0.322781 -1.785736,0.954053 -2.712786,1.402826 -7.042203,3.409061 -14.934655,4.902964 -23.145488,4.381047 z m 12.160488,-22.70612 c 0.160486,-0.479158 0.274365,-0.888622 0.253063,-0.909924 -0.0213,-0.0213 -0.136943,0.265499 -0.256981,0.637331 -0.168058,0.520586 -0.23349,0.633037 -0.284517,0.488974 l -0.06627,-0.187089 -0.05192,0.187089 c -0.131431,0.47362 -0.1638,0.71791 -0.107246,0.809416 0.09049,0.146418 0.183309,-0.03887 0.513866,-1.025797 z m 0.0557,-1.438183 c -0.02986,-0.07462 -0.05203,-0.05246 -0.05652,0.05651 -0.004,0.09861 0.01804,0.153861 0.04913,0.122777 0.03108,-0.03108 0.03441,-0.111768 0.0074,-0.179292 z m 0.09354,-0.374179 c -0.02986,-0.07462 -0.05203,-0.05246 -0.05652,0.05652 -0.0041,0.09861 0.01805,0.15386 0.04913,0.122777 0.03108,-0.03109 0.03441,-0.111768 0.0074,-0.179295 z m 0.76999,-1.198536 c -0.0034,-0.09252 -0.03253,-0.07659 -0.08554,0.04677 -0.110506,0.257162 -0.110506,0.404855 0,0.23386 0.04987,-0.07717 0.08837,-0.203459 0.08554,-0.280633 z m 0.836758,-2.899876 c 0,-0.08844 -0.02972,-0.07115 -0.0804,0.04677 -0.04422,0.102899 -0.08039,0.250232 -0.08039,0.327405 0,0.08845 0.02972,0.07115 0.08039,-0.04677 0.04422,-0.102899 0.0804,-0.250229 0.0804,-0.327406 z M 15.386692,45.57033 c -0.0404,-0.0404 -0.700233,0.352666 -0.700233,0.417132 0,0.02307 0.165557,-0.05335 0.367908,-0.169807 0.202348,-0.116456 0.351896,-0.227753 0.332325,-0.247325 z"
         id="path17645" />
      <path
         style="fill:#f9f9f9;stroke:none;stroke-width:2.42714"
         d="M 30.963173,80.297101 C 21.181202,79.737013 11.581248,75.78036 4.0772545,69.215981 2.4492494,67.79183 1.2160742,66.571209 1.2160742,66.383934 c 0,-0.08915 1.4804786,-2.401943 3.2899534,-5.139552 4.7241195,-7.147253 9.0100174,-13.654397 9.1007694,-13.817407 0.319027,-0.573032 -0.644564,0.852257 -4.3857463,6.487155 -2.3517833,3.54221 -4.2975555,6.418794 -4.3239371,6.39241 -0.026379,-0.02638 0.0046,-0.146286 0.068887,-0.266454 0.4314507,-0.806694 7.5068054,-12.53109 10.7898884,-17.879658 0.656883,-1.070147 1.240935,-1.930188 1.297892,-1.911204 0.126958,0.04232 0.651269,1.319688 1.333545,3.24889 0.28203,0.797465 0.633357,1.681459 0.780724,1.96443 0.147371,0.282972 0.298432,0.614966 0.335693,0.737765 0.06703,0.220895 0.06217,0.220077 -0.45711,-0.07702 -0.605279,-0.346308 -0.696529,-0.331489 -0.157067,0.02551 0.202284,0.133866 0.585515,0.436763 0.851625,0.673105 0.26611,0.236344 0.499904,0.413644 0.519546,0.394001 0.01963,-0.01963 -0.157382,-0.613351 -0.393388,-1.31936 l -0.429095,-1.283647 0.586856,-1.047957 c 1.450554,-2.590278 11.77576,-19.921899 12.126084,-20.35453 l 0.174718,-0.215768 1.161486,1.856132 c 1.638369,2.618218 5.480167,8.336869 9.35373,13.923351 1.819378,2.62392 3.325476,4.858686 3.346886,4.966149 0.0214,0.107461 -0.241617,1.159836 -0.584501,2.338607 -0.342884,1.178772 -0.64334,2.227411 -0.667676,2.33031 -0.04364,0.184523 -0.04226,0.1846 0.100912,0.0055 0.206637,-0.258483 0.189714,-0.07493 -0.09358,1.015034 -0.131305,0.5052 -0.221687,0.935596 -0.200845,0.956437 0.02085,0.02085 0.486357,-1.530972 1.034483,-3.448468 1.503781,-5.260647 2.079858,-7.180755 2.18635,-7.287244 0.141153,-0.141153 1.217435,1.656506 12.132749,20.264686 l 4.828725,8.231901 -0.446772,0.4107 c -0.730531,0.671549 -2.151518,1.841645 -3.299873,2.717242 -6.481313,4.941879 -14.23226,7.972737 -22.637729,8.85205 -1.291957,0.135152 -6.245174,0.246327 -7.577089,0.170064 z M 42.663608,57.554659 c 0.149736,-0.442981 0.255752,-0.821918 0.235588,-0.842082 -0.02016,-0.02016 -0.130225,0.244489 -0.244578,0.588119 -0.140245,0.421439 -0.233072,0.584073 -0.285216,0.499705 -0.06308,-0.102071 -0.0853,-0.09975 -0.120787,0.01262 -0.106762,0.338039 -0.1368,0.587293 -0.08656,0.718222 0.07542,0.196551 0.161973,0.02803 0.501552,-0.976583 z m 0.05651,-1.445599 c -0.02986,-0.07462 -0.05203,-0.05246 -0.05652,0.05651 -0.004,0.09861 0.01804,0.153861 0.04913,0.122777 0.03108,-0.03108 0.03441,-0.111768 0.0074,-0.179292 z m 1.964431,-5.519116 c -0.02986,-0.07462 -0.05203,-0.05246 -0.05652,0.05651 -0.004,0.09861 0.01804,0.153861 0.04913,0.122778 0.03108,-0.03108 0.03441,-0.111768 0.0074,-0.179293 z M 15.341268,45.596278 c 0,-0.02572 -0.08419,-0.0016 -0.18709,0.05336 -0.102899,0.05507 -0.187086,0.121174 -0.187086,0.146899 0,0.02572 0.08419,0.0016 0.187086,-0.05336 0.1029,-0.05507 0.18709,-0.121173 0.18709,-0.146899 z"
         id="path17684" />
      <path
         style="fill:#f9f9f9;stroke:none;stroke-width:2.42714"
         d="M 30.308361,80.260467 C 21.683995,79.619834 12.971797,76.263227 6.1820016,70.965142 4.097937,69.338944 1.2160742,66.681363 1.2160742,66.385691 c 0,-0.152479 1.5751677,-2.571933 7.6839867,-11.802573 1.5662561,-2.366674 2.8836911,-4.366183 2.9276281,-4.443357 0.335655,-0.589563 -0.558152,0.719871 -3.4995858,5.126929 -1.8648759,2.794085 -3.4116539,5.059188 -3.4372841,5.033558 -0.063193,-0.06319 0.1610678,-0.448776 3.2979492,-5.670359 5.6210997,-9.356757 8.7215237,-14.405827 8.8460187,-14.405827 0.123615,0 0.476313,0.832731 1.168783,2.759559 0.332822,0.926087 0.772097,2.042279 0.976162,2.480421 0.204068,0.438145 0.37103,0.831525 0.37103,0.874175 0,0.04265 -0.199951,-0.03366 -0.444336,-0.169568 l -0.444333,-0.247119 0.323366,0.261615 c 0.17785,0.143888 0.52951,0.443159 0.781465,0.665044 0.251955,0.221884 0.473761,0.38777 0.492898,0.36863 0.01913,-0.01913 -0.159316,-0.62163 -0.396568,-1.338871 l -0.431364,-1.304075 1.358506,-2.338608 c 3.056975,-5.26244 11.005278,-18.576694 11.34183,-18.998771 l 0.195398,-0.245049 1.253487,1.998046 c 1.702263,2.71339 4.883698,7.447979 9.074084,13.504 1.922388,2.778268 3.512433,5.139169 3.533433,5.246447 0.02101,0.10728 -0.240898,1.159653 -0.581996,2.338609 -0.341098,1.178955 -0.643697,2.227744 -0.672441,2.330643 l -0.05226,0.18709 0.147016,-0.18709 c 0.191799,-0.244075 0.193828,-0.09153 0.0092,0.691719 -0.344109,1.459815 0.0037,0.382699 1.019239,-3.156302 1.388721,-4.839552 1.797113,-6.185479 1.911577,-6.299946 0.05967,-0.05967 0.276051,0.206777 0.621726,0.765601 0.79525,1.285619 5.393682,9.080032 11.173074,18.938534 4.953558,8.449791 5.145653,8.794961 4.99024,8.966734 -0.275903,0.304943 -2.732622,2.339673 -3.716322,3.077972 -5.97086,4.481322 -13.060698,7.416496 -20.49423,8.484555 -0.715878,0.102857 -1.785692,0.234098 -2.377358,0.291645 -1.390984,0.135289 -6.468719,0.193942 -7.857726,0.09077 z M 42.611742,57.709945 c 0.13798,-0.414321 0.233008,-0.771181 0.211172,-0.793017 -0.02183,-0.02183 -0.114514,0.197615 -0.205946,0.487675 -0.113813,0.361053 -0.190818,0.487619 -0.24416,0.401307 -0.05583,-0.09033 -0.09522,-0.04789 -0.138931,0.149683 -0.03356,0.151664 -0.07564,0.324257 -0.09352,0.383537 -0.03963,0.131379 0.04725,0.231211 0.147372,0.169333 0.04023,-0.02487 0.186034,-0.384193 0.324017,-0.798518 z m 2.072804,-7.120001 c -0.02986,-0.07462 -0.05203,-0.05246 -0.05652,0.05651 -0.004,0.09861 0.01804,0.153861 0.04913,0.122778 0.03108,-0.03108 0.03441,-0.111768 0.0074,-0.179293 z m 0.187087,-0.654811 c -0.02986,-0.07462 -0.05203,-0.05246 -0.05652,0.05652 -0.004,0.09861 0.01805,0.153861 0.04913,0.122777 0.03108,-0.03109 0.03441,-0.111768 0.0074,-0.179294 z m -32.159789,-1.12838 c 0.368049,-0.553079 0.648129,-1.005601 0.622406,-1.005601 -0.04279,0 -1.224158,1.731391 -1.40421,2.057976 -0.204126,0.37025 0.172323,-0.13648 0.781804,-1.052375 z"
         id="path17723" />
      <path
         style="fill:#f9f9f9;stroke:none;stroke-width:2.42714"
         d="M 30.776083,80.297342 C 21.906684,79.682205 13.333284,76.459252 6.4077838,71.136697 4.3464019,69.552433 1.3477837,66.834967 1.2555685,66.467556 c -0.062672,-0.249701 -0.43064904,0.32807 5.6030785,-8.797475 4.70295,-7.11285 4.732163,-7.157564 4.583528,-7.015827 -0.05395,0.05145 -1.5392798,2.253647 -3.3007274,4.893768 -1.7614477,2.640123 -3.2251544,4.777697 -3.2526843,4.750167 -0.02753,-0.02753 0.3009741,-0.651163 0.7300092,-1.385853 1.3538518,-2.318369 8.9138915,-14.802315 10.7932645,-17.822989 0.296095,-0.475906 0.576736,-0.865285 0.623644,-0.865285 0.123005,0 0.47095,0.824097 1.224367,2.899875 0.364141,1.003263 0.803518,2.107203 0.976395,2.453204 0.392684,0.785926 0.393887,0.864907 0.01029,0.675664 -0.254619,-0.125617 -0.220419,-0.0727 0.210476,0.325633 0.595942,0.55091 0.896832,0.754121 0.82238,0.5554 -0.02633,-0.0703 -0.228734,-0.67732 -0.449775,-1.348938 l -0.401892,-1.221129 0.918647,-1.585204 c 2.960142,-5.107979 11.683296,-19.710331 11.864289,-19.860542 0.102735,-0.08526 0.342914,0.234838 1.236501,1.647986 2.358367,3.729596 4.145963,6.389851 9.570099,14.241975 1.723712,2.495294 3.150565,4.622552 3.170782,4.727237 0.02021,0.104685 -0.255876,1.210513 -0.613542,2.457397 -0.435327,1.517613 -0.602681,2.227789 -0.506243,2.148271 0.126936,-0.104672 0.136686,-0.07432 0.08203,0.255389 -0.03411,0.205798 -0.08931,0.479414 -0.12266,0.608039 -0.03335,0.128622 -0.03702,0.212812 -0.0082,0.187087 0.02887,-0.02572 0.603062,-1.95139 1.275983,-4.279257 1.358198,-4.698463 1.608695,-5.496126 1.726006,-5.496126 0.10341,0 0.817687,1.169527 3.93663,6.445662 2.064136,3.491783 11.742414,19.989938 12.718319,21.680395 l 0.252246,0.436933 -0.823063,0.720606 c -3.066142,2.684452 -6.030142,4.721254 -9.345475,6.422027 -5.243203,2.689776 -10.503889,4.235194 -16.500699,4.847371 -0.984327,0.100483 -6.517048,0.195355 -7.483547,0.128325 z M 42.565678,57.831543 c 0.11593,-0.322792 0.190471,-0.607203 0.165645,-0.632026 -0.02482,-0.02482 -0.09774,0.130434 -0.162028,0.345019 -0.07522,0.251052 -0.142624,0.348528 -0.189058,0.273394 -0.0955,-0.154527 -0.191746,0.08968 -0.191746,0.486547 0,0.393663 0.119975,0.243232 0.377187,-0.472934 z"
         id="path17762" />
      <path
         style="fill:#f9f9f9;stroke:none;stroke-width:2.42714"
         d="M 30.074501,80.251905 C 21.570247,79.574363 13.100284,76.296355 6.2674673,71.03822 4.3146757,69.535463 1.3456247,66.826365 1.2547801,66.464412 1.1957647,66.229277 1.5773309,65.633126 7.87148,56.126599 c 1.7202308,-2.598195 3.163702,-4.787132 3.207716,-4.864306 0.333869,-0.58542 -0.513787,0.65318 -3.1249385,4.566177 C 5.2432229,59.891144 4.522572,60.899556 5.0108368,59.947222 5.3682835,59.25004 13.666961,45.512432 16.207691,41.41198 c 0.408085,-0.658603 0.790467,-1.181298 0.849736,-1.161539 0.137843,0.04595 0.554532,1.043691 1.310838,3.138744 0.330277,0.914897 0.731452,1.922859 0.891501,2.239915 0.348361,0.690102 0.366321,0.815784 0.0959,0.671054 -0.364567,-0.195109 -0.258585,-0.04358 0.31305,0.447609 0.313616,0.269478 0.582742,0.477425 0.598059,0.462108 0.01532,-0.01532 -0.167272,-0.616474 -0.405755,-1.335902 l -0.433601,-1.308052 0.895236,-1.549308 c 2.826446,-4.891471 11.602508,-19.590813 11.848406,-19.845319 0.155036,-0.160459 0.216363,-0.0826 1.363179,1.730571 1.653026,2.613517 5.663668,8.580961 9.449107,14.059352 1.741963,2.521019 3.184535,4.672328 3.205715,4.780685 0.02117,0.108358 -0.238861,1.16114 -0.577866,2.339517 -0.339003,1.178375 -0.616371,2.176151 -0.616371,2.217275 0,0.04112 0.04851,0.04479 0.107792,0.0081 0.10723,-0.06627 0.07509,0.319426 -0.07478,0.897475 -0.03335,0.128624 -0.03798,0.212812 -0.01029,0.187089 0.02769,-0.02572 0.584287,-1.898951 1.236877,-4.162724 1.312968,-4.554545 1.646732,-5.612659 1.770412,-5.612659 0.139803,0 4.189359,6.817117 13.748977,23.145342 3.033824,5.181899 3.139303,5.378297 2.98192,5.552202 -0.08974,0.09916 -0.630933,0.578117 -1.202663,1.064355 C 56.27123,75.570897 48.159232,79.075893 38.6761,80.126649 37.091986,80.302171 31.692367,80.3808 30.074495,80.2519 Z M 42.549036,57.866976 c 0.112609,-0.303303 0.186986,-0.569217 0.165282,-0.590921 -0.0217,-0.0217 -0.08869,0.109712 -0.148862,0.292034 -0.06017,0.182322 -0.159081,0.32195 -0.219797,0.310288 -0.06626,-0.01273 -0.122243,0.128391 -0.140034,0.35297 -0.03763,0.475157 0.07679,0.35375 0.343411,-0.364371 z"
         id="path17801" />
      <path
         style="fill:#f9f9f9;stroke:none;stroke-width:2.42714"
         d="M 30.542223,80.296451 C 21.706288,79.586978 13.558593,76.527191 6.6426915,71.321218 4.5294247,69.73045 1.3558668,66.867174 1.2533778,66.458827 1.1940714,66.222533 1.4776465,65.777631 7.1235294,57.249131 8.843538,54.650936 10.286829,52.461999 10.33084,52.384825 c 0.328671,-0.5763 -0.4670476,0.582583 -2.7503382,4.00559 -1.4523826,2.177349 -2.6635683,3.935945 -2.6915242,3.907989 -0.066397,-0.0664 0.4672277,-0.988185 3.2815106,-5.668515 6.1952108,-10.303018 8.7437808,-14.427169 8.8861238,-14.379721 0.134213,0.04474 0.523952,0.968187 1.232609,2.92054 0.298797,0.82319 0.704879,1.849879 0.902406,2.281534 0.418098,0.913672 0.430938,0.98712 0.148662,0.850347 -0.115761,-0.05609 0.01926,0.116149 0.300061,0.382751 0.280797,0.266605 0.526053,0.438195 0.545015,0.381315 0.01897,-0.05688 -0.144981,-0.647163 -0.364312,-1.311735 l -0.398788,-1.208315 1.439571,-2.46529 C 24.720408,35.473431 32.02249,23.274364 32.21476,23.114794 c 0.104238,-0.08651 0.372703,0.278844 1.418024,1.929789 1.980364,3.127716 7.654912,11.520548 12.125346,17.933759 0.249023,0.357244 0.452768,0.729729 0.452768,0.827744 0,0.137377 -0.61664,2.428087 -1.185616,4.404344 -0.03584,0.124481 -0.0163,0.154273 0.06731,0.102606 0.09132,-0.05644 0.10313,0.01902 0.05251,0.335565 -0.03591,0.224608 -0.04628,0.388909 -0.02304,0.365117 0.02326,-0.02379 0.511297,-1.663917 1.084553,-3.644717 1.293927,-4.470963 1.668391,-5.682999 1.776416,-5.749761 0.100607,-0.06218 0.775615,1.016098 3.189483,5.094949 1.853525,3.13201 10.725663,18.242198 12.657537,21.55712 l 1.087493,1.866037 -0.209368,0.225312 c -0.365233,0.393051 -2.502844,2.15605 -3.76405,3.104409 -6.379831,4.79729 -13.970171,7.754784 -22.216779,8.656523 -1.296511,0.141769 -7.057183,0.263427 -8.185128,0.172861 z M 42.517905,57.734454 c -0.02683,-0.02683 -0.04878,0.0028 -0.04878,0.06587 0,0.06306 -0.03817,0.09107 -0.08482,0.06223 -0.04665,-0.02883 -0.06085,0.03925 -0.03155,0.151283 l 0.05327,0.203708 0.08033,-0.217159 c 0.04418,-0.119436 0.05838,-0.239109 0.03155,-0.265938 z"
         id="path17840" />
      <path
         style="fill:#f9f9f9;stroke:none;stroke-width:2.42714"
         d="M 30.542223,80.293297 C 24.665256,79.824709 19.112001,78.323556 13.984876,75.817528 9.6774596,73.712154 6.2332117,71.30824 2.5022931,67.803254 1.8463037,67.186992 1.2848817,66.584348 1.2546875,66.46405 c -0.059828,-0.238374 0.2225013,-0.684424 5.1369223,-8.115774 1.4205003,-2.148011 2.5643893,-3.905474 2.5419738,-3.905474 -0.02241,0 -0.9305607,1.328573 -2.0180961,2.952384 -1.89475,2.829068 -2.4787833,3.584279 -1.7174131,2.220775 C 5.9482502,58.272508 13.621892,45.573717 15.96941,41.79093 c 0.5348,-0.861777 1.014468,-1.566868 1.065929,-1.566868 0.125344,0 0.403879,0.64662 1.212202,2.814135 0.372542,0.998971 0.818171,2.126752 0.990285,2.506183 0.359458,0.79243 0.373322,0.866473 0.149233,0.796938 -0.09004,-0.02794 0.04437,0.140661 0.298675,0.374664 0.254307,0.234002 0.914297,1.0493 0.937858,1.025739 0.02358,-0.02358 -0.571159,-1.25163 -0.792819,-1.94301 l -0.403018,-1.257049 1.434195,-2.462818 c 3.464578,-5.949424 11.159612,-18.80371 11.352305,-18.963632 0.104722,-0.08691 0.371922,0.275616 1.422069,1.929426 1.751153,2.757776 4.793319,7.285138 9.005329,13.40176 1.930755,2.803816 3.527089,5.184828 3.547412,5.291137 0.02904,0.1519 -0.451689,1.999533 -1.163783,4.472895 -0.03584,0.124481 -0.0163,0.154273 0.06731,0.102606 0.09132,-0.05644 0.10313,0.01902 0.05251,0.335565 -0.03591,0.224608 -0.04723,0.388909 -0.02513,0.365117 0.02209,-0.02379 0.547396,-1.790202 1.167349,-3.92535 1.328439,-4.575191 1.58451,-5.400392 1.697501,-5.470223 0.145711,-0.09005 1.699114,2.50858 11.881453,19.87605 l 5.07306,8.652851 -0.594429,0.550153 c -0.903113,0.835846 -3.35343,2.778856 -4.590439,3.640045 -6.673122,4.64575 -14.661221,7.420552 -22.804445,7.921514 -1.399445,0.08609 -5.485013,0.108114 -6.407785,0.03454 z M 42.554661,57.763624 c 0.0028,-0.05145 -0.03566,-0.0304 -0.08554,0.04677 -0.04987,0.07717 -0.08837,0.203459 -0.08554,0.280633 0.0054,0.148159 0.161335,-0.150212 0.171074,-0.327406 z"
         id="path17879"
         sodipodi:nodetypes="sssssssssssssssscsssssssssssscsssssssss" />
      <path
         style="fill:#f9f9f9;stroke:none;stroke-width:0.858126"
         d="m 45.210617,48.460147 c 0.01836,-0.262988 0.01648,-0.272852 -0.052,-0.272852 -0.03908,0 -0.07105,-0.01606 -0.07105,-0.0357 0,-0.03728 0.192651,-0.01109 0.239823,0.03261 0.01368,0.01265 -0.0113,0.141317 -0.05548,0.285903 l -0.08033,0.262885 z"
         id="path17955" />
      <path
         style="fill:#f9f9f9;stroke:none;stroke-width:0.429062"
         d="m 19.611609,46.626142 c -0.134332,-0.132458 -0.239919,-0.245152 -0.234641,-0.250431 0.0053,-0.0053 0.05002,0.0132 0.09942,0.0411 0.102745,0.05799 0.145028,0.064 0.145028,0.02061 0,-0.09231 -0.120348,-0.392872 -0.305792,-0.763677 -0.06595,-0.131879 -0.159173,-0.334796 -0.207155,-0.450927 l -0.08724,-0.211151 0.03084,-0.05727 c 0.01696,-0.0315 0.0361,-0.05182 0.04252,-0.04516 0.01683,0.01744 0.774388,1.9446 0.767234,1.951754 -0.0033,0.0033 -0.115888,-0.102394 -0.250219,-0.234849 z"
         id="path18887" />
      <path
         style="fill:#f9f9f9;stroke:none;stroke-width:0.429062"
         d="m 19.596615,46.599795 c -0.108858,-0.109141 -0.192159,-0.198437 -0.185119,-0.198437 0.007,0 0.04198,0.01487 0.07763,0.03307 0.09408,0.048 0.132291,0.04406 0.132291,-0.01365 0,-0.09561 -0.05652,-0.233881 -0.376303,-0.920671 -0.203793,-0.437665 -0.217694,-0.476318 -0.190196,-0.528801 0.01323,-0.02524 0.03004,-0.03905 0.03792,-0.03113 0.02392,0.02405 0.727017,1.805426 0.727017,1.842008 0,0.03525 -0.03325,0.0081 -0.223242,-0.182404 z"
         id="path18926" />
      <path
         style="fill:#f9f9f9;stroke:none;stroke-width:0.429062"
         d="m 19.596615,46.599795 c -0.108858,-0.109141 -0.192159,-0.198437 -0.185119,-0.198437 0.007,0 0.04198,0.01487 0.07763,0.03307 0.03565,0.0182 0.08097,0.03307 0.100711,0.03307 0.03243,0 0.03512,-0.0067 0.02795,-0.07028 -0.0105,-0.09302 -0.100274,-0.315375 -0.281815,-0.697936 -0.08181,-0.172408 -0.184058,-0.39565 -0.227206,-0.496094 -0.07348,-0.171056 -0.07697,-0.185544 -0.05505,-0.228645 0.01286,-0.02529 0.03005,-0.04191 0.03817,-0.03689 0.02074,0.01281 0.727959,1.804602 0.727959,1.844308 0,0.03551 -0.03294,0.0086 -0.223242,-0.182174 z"
         id="path18965" />
      <path
         style="fill:none;stroke:#000000;stroke-width:0.282148px;stroke-linecap:butt;stroke-linejoin:miter;stroke-opacity:1"
         d="m 19.946834,46.772554 0.556678,1.327419 1.176187,2.744765"
         id="path24363"
         sodipodi:nodetypes="ccc" />
      <path
         style="fill:none;stroke:#000000;stroke-width:0.264583px;stroke-linecap:butt;stroke-linejoin:miter;stroke-opacity:1"
         d="m 45.322228,47.847925 -0.8419,2.666013"
         id="path24478" />
      <path
         style="fill:none;stroke:#000000;stroke-width:0.264583px;stroke-linecap:butt;stroke-linejoin:miter;stroke-opacity:1"
         d="M 0.47220031,66.608911 C 16.876367,39.885993 16.876367,39.753702 16.876367,39.753702 l 3.836458,8.863541"
         id="path26017" />
      <text
         xml:space="preserve"
         style="font-style:normal;font-variant:normal;font-weight:normal;font-stretch:normal;font-size:9.87778px;line-height:1.25;font-family:Impact;-inkscape-font-specification:Impact;opacity:0.941896;fill:#999999;fill-opacity:0.594697;stroke:#000000;stroke-width:0.265;stroke-miterlimit:4;stroke-dasharray:none;stroke-opacity:1;filter:url(#filter49777)"
         x="16.08214"
         y="65.525139"
         id="text27546"><tspan
           sodipodi:role="line"
           id="tspan27544"
           style="font-style:normal;font-variant:normal;font-weight:normal;font-stretch:normal;font-size:9.87778px;font-family:Impact;-inkscape-font-specification:Impact;opacity:0.993884;fill:#999999;fill-opacity:0.594697;stroke:#000000;stroke-width:0.265;stroke-miterlimit:4;stroke-dasharray:none;stroke-opacity:1"
           x="16.08214"
           y="65.525139">SkiSnow</tspan></text>
      <path
         style="opacity:0.993884;fill:#cccccc;fill-opacity:0;stroke:#000000;stroke-width:0.177055;stroke-miterlimit:4;stroke-dasharray:none;stroke-opacity:1"
         d="m 75.762097,27.444582 c -5.170448,-3.670326 -9.520238,-6.75287 -9.666203,-6.850097 -0.271161,-0.180622 -0.895105,0.381132 -1.749177,1.574829 l -0.353553,0.494146 -7.895958,-4.879381 c -4.342777,-2.683659 -7.974195,-4.87938 -8.069819,-4.87938 -0.09562,0 -3.500399,2.307687 -7.566166,5.128193 l -7.392305,5.128193 -1.276586,-1.268066 -1.276585,-1.268067 -1.204125,0.982166 c -0.66227,0.540191 -4.744079,3.386741 -9.070688,6.325668 L 12.374369,33.276289 10.606602,32.38023 C 6.6768736,30.388297 3.4739617,27.808945 1.8420772,25.322031 -2.5998805,18.552698 2.2303801,11.446827 14.672466,6.4470462 29.702597,0.40727417 52.978089,-1.1248725 71.941548,2.6772171 c 13.05154,2.6167763 22.468286,7.2692101 26.051798,12.8711409 1.43783,2.247689 1.831478,4.901951 1.085293,7.317819 -0.753216,2.438627 -3.332755,5.39333 -6.60107,7.56111 -1.524376,1.011076 -6.687494,3.688257 -7.116155,3.689869 -0.109177,3.54e-4 -4.428871,-3.002248 -9.599317,-6.672574 z"
         id="path80614"
         transform="matrix(0.88527783,0,0,2.1295133,-10.2443,-5.1555905)" />
    </g>
  </g>
</svg>
